<?xml version="1.0" encoding="UTF-8" standalone="no"?>
<!-- Created with Inkscape (http://www.inkscape.org/) -->

<svg
   xmlns:dc="http://purl.org/dc/elements/1.1/"
   xmlns:cc="http://creativecommons.org/ns#"
   xmlns:rdf="http://www.w3.org/1999/02/22-rdf-syntax-ns#"
   xmlns:svg="http://www.w3.org/2000/svg"
   xmlns="http://www.w3.org/2000/svg"
   xmlns:sodipodi="http://sodipodi.sourceforge.net/DTD/sodipodi-0.dtd"
   xmlns:inkscape="http://www.inkscape.org/namespaces/inkscape"
   width="754.56"
   height="754.56"
   viewBox="0 0 199.644 199.64401"
   version="1.1"
   id="svg8"
   inkscape:version="0.92.4 (5da689c313, 2019-01-14)"
   sodipodi:docname="micro-daemon.svg"
   inkscape:export-filename="/home/chiara/microdaemon/docs/assets/brand/favicon.png"
   inkscape:export-xdpi="4.27"
   inkscape:export-ydpi="4.27">
  <defs
     id="defs2">
    <filter
       inkscape:collect="always"
       style="color-interpolation-filters:sRGB"
       id="filter4649"
       x="-0.28799999"
       width="1.576"
       y="-0.28799999"
       height="1.576">
      <feGaussianBlur
         inkscape:collect="always"
         stdDeviation="6.8035715"
         id="feGaussianBlur4651" />
    </filter>
    <filter
       inkscape:collect="always"
       style="color-interpolation-filters:sRGB"
       id="filter4653"
       x="-0.35409832"
       width="1.7081968"
       y="-0.35409832"
       height="1.7081966">
      <feGaussianBlur
         inkscape:collect="always"
         stdDeviation="6.8035715"
         id="feGaussianBlur4655" />
    </filter>
    <filter
       inkscape:collect="always"
       style="color-interpolation-filters:sRGB"
       id="filter4657"
       x="-0.17419355"
       width="1.3483871"
       y="-0.17419355"
       height="1.3483871">
      <feGaussianBlur
         inkscape:collect="always"
         stdDeviation="6.8035715"
         id="feGaussianBlur4659" />
    </filter>
    <filter
       inkscape:collect="always"
       style="color-interpolation-filters:sRGB"
       id="filter4709"
       x="-0.16799998"
       width="1.336"
       y="-0.16800001"
       height="1.336">
      <feGaussianBlur
         inkscape:collect="always"
         stdDeviation="4.7095836"
         id="feGaussianBlur4711" />
    </filter>
    <filter
       inkscape:collect="always"
       style="color-interpolation-filters:sRGB"
       id="filter886"
       x="-0.024"
       width="1.048"
       y="-0.024"
       height="1.048">
      <feGaussianBlur
         inkscape:collect="always"
         stdDeviation="1.905"
         id="feGaussianBlur888" />
    </filter>
  </defs>
  <sodipodi:namedview
     id="base"
     pagecolor="#ffffff"
     bordercolor="#666666"
     borderopacity="1.0"
     inkscape:pageopacity="0.0"
     inkscape:pageshadow="2"
     inkscape:zoom="0.12374369"
     inkscape:cx="3124.7276"
     inkscape:cy="-927.92837"
     inkscape:document-units="mm"
     inkscape:current-layer="layer3"
     showgrid="false"
     inkscape:window-width="1699"
     inkscape:window-height="1056"
     inkscape:window-x="129"
     inkscape:window-y="0"
     inkscape:window-maximized="1"
     units="px"
     fit-margin-top="0"
     fit-margin-left="0"
     fit-margin-right="0"
     fit-margin-bottom="0">
    <inkscape:grid
       type="xygrid"
       id="grid4506"
       originx="4.5719987"
       originy="4.571996" />
  </sodipodi:namedview>
  <metadata
     id="metadata5">
    <rdf:RDF>
      <cc:Work
         rdf:about="">
        <dc:format>image/svg+xml</dc:format>
        <dc:type
           rdf:resource="http://purl.org/dc/dcmitype/StillImage" />
        <dc:title></dc:title>
      </cc:Work>
    </rdf:RDF>
  </metadata>
  <g
     inkscape:groupmode="layer"
     id="layer2"
     inkscape:label="background"
     style="display:inline"
     transform="translate(4.5719987,4.5720002)">
    <path
       style="opacity:1;fill:#ff6aff;fill-opacity:1;fill-rule:nonzero;stroke:#404040;stroke-width:0.26458332;stroke-linecap:round;stroke-linejoin:round;stroke-miterlimit:4;stroke-dasharray:none;stroke-dashoffset:0;stroke-opacity:1;paint-order:normal"
       d="M 19.999814,-9.9999994e-8 C 8.9198145,-9.9999994e-8 1.85e-6,8.9198125 1.85e-6,19.999813 V 170.50019 C 1.85e-6,181.58018 8.9198145,190.5 19.999814,190.5 H 170.50019 c 11.08,0 19.99981,-8.91982 19.99981,-19.99981 V 19.999813 C 190.5,8.9198125 181.58019,-9.9999994e-8 170.50019,-9.9999994e-8 Z M 32.541685,15.875 H 157.95832 c 9.23333,0 16.66668,7.43335 16.66668,16.666683 V 157.95831 c 0,9.23334 -7.43335,16.66669 -16.66668,16.66669 H 32.541685 c -9.233333,0 -16.666683,-7.43335 -16.666683,-16.66669 V 32.541683 c 0,-9.233333 7.43335,-16.666683 16.666683,-16.666683 z"
       id="rect4579"
       inkscape:connector-curvature="0" />
    <path
       inkscape:connector-curvature="0"
       style="display:inline;opacity:1;fill:#b3deea;fill-opacity:1;fill-rule:nonzero;stroke:none;stroke-width:0.26458332;stroke-linecap:round;stroke-linejoin:round;stroke-miterlimit:4;stroke-dasharray:none;stroke-dashoffset:0;stroke-opacity:1;paint-order:normal"
       d="M 19.999809,-9.9999994e-8 C 8.9198091,-9.9999994e-8 -8.5e-7,8.9198099 -8.5e-7,19.999813 V 170.50019 c 0,11.08 8.91980995,19.99981 19.99980985,19.99981 H 170.50019 c 11.08,0 19.99981,-8.91981 19.99981,-19.99981 V 19.999813 C 190.5,8.9198099 181.58019,-9.9999994e-8 170.50019,-9.9999994e-8 Z"
       id="rect4579-6"
       sodipodi:nodetypes="sssssssss" />
  </g>
  <g
     inkscape:groupmode="layer"
     id="layer3"
     inkscape:label="circles big"
     style="display:inline"
     transform="translate(4.5719987,4.5720002)">
    <path
       style="display:inline;opacity:1;fill:#404040;fill-opacity:1;fill-rule:nonzero;stroke:#022a35;stroke-width:1;stroke-linecap:round;stroke-linejoin:round;stroke-miterlimit:4;stroke-dasharray:none;stroke-dashoffset:0;stroke-opacity:1;paint-order:normal;filter:url(#filter4657)"
       d="M 142.875,196.45831 A 46.869054,46.869048 0 0 1 96.005958,243.32735 46.869054,46.869048 0 0 1 49.136898,196.45831 46.869054,46.869048 0 0 1 96.005958,149.58925 46.869054,46.869048 0 0 1 142.875,196.45831 Z"
       id="path4485-2"
       inkscape:connector-curvature="0"
       transform="matrix(0.8699804,0,0,0.8699804,11.726704,-75.664872)" />
    <path
       style="display:inline;opacity:1;fill:#b3deea;fill-opacity:1;fill-rule:nonzero;stroke:none;stroke-width:0.86998039;stroke-linecap:round;stroke-linejoin:round;stroke-miterlimit:4;stroke-dasharray:none;stroke-dashoffset:0;stroke-opacity:1;paint-order:normal"
       d="M 136.02516,95.25001 A 40.775157,40.775154 0 0 1 95.250007,136.02515 40.775157,40.775154 0 0 1 54.474842,95.25001 40.775157,40.775154 0 0 1 95.250007,54.47485 40.775157,40.775154 0 0 1 136.02516,95.25001 Z"
       id="path4485"
       inkscape:connector-curvature="0" />
  </g>
  <g
     inkscape:label="circles"
     inkscape:groupmode="layer"
     id="layer1"
     transform="translate(4.5719987,-101.92798)"
     style="display:inline"
     sodipodi:insensitive="true">
    <path
       style="opacity:1;fill:#404040;fill-opacity:1;fill-rule:nonzero;stroke:#022a35;stroke-width:1;stroke-linecap:round;stroke-linejoin:round;stroke-miterlimit:4;stroke-dasharray:none;stroke-dashoffset:0;stroke-opacity:1;paint-order:normal;filter:url(#filter4649)"
       d="m 179.91666,233.49998 a 28.348218,28.348215 0 0 1 -28.34821,28.34822 28.348218,28.348215 0 0 1 -28.34822,-28.34822 28.348218,28.348215 0 0 1 28.34822,-28.34821 28.348218,28.348215 0 0 1 28.34821,28.34821 z"
       id="path4485-3-6-1"
       inkscape:connector-curvature="0"
       transform="matrix(0.86998039,0,0,0.86998039,12.809367,25.560731)" />
    <path
       style="opacity:1;fill:#404040;fill-opacity:1;fill-rule:nonzero;stroke:#022a35;stroke-width:0.99999994;stroke-linecap:round;stroke-linejoin:round;stroke-miterlimit:4;stroke-dasharray:none;stroke-dashoffset:0;stroke-opacity:1;paint-order:normal;filter:url(#filter4709)"
       d="m 79.375002,244.08331 a 33.639884,33.639882 0 0 1 -33.63989,33.63988 33.639884,33.639882 0 0 1 -33.63988,-33.63988 33.639884,33.639882 0 0 1 33.63988,-33.63988 33.639884,33.639882 0 0 1 33.63989,33.63988 z"
       id="path4485-3-7-9"
       inkscape:connector-curvature="0"
       transform="matrix(0.86998039,0,0,0.86998039,12.809367,25.560731)" />
    <path
       style="opacity:0.98999999;fill:#404040;fill-opacity:1;fill-rule:nonzero;stroke:#022a35;stroke-width:1;stroke-linecap:round;stroke-linejoin:round;stroke-miterlimit:4;stroke-dasharray:none;stroke-dashoffset:0;stroke-opacity:1;paint-order:normal;filter:url(#filter4653)"
       d="m 148.16666,143.54165 a 23.056552,23.056549 0 0 1 -23.05655,23.05655 23.056552,23.056549 0 0 1 -23.05655,-23.05655 23.056552,23.056549 0 0 1 23.05655,-23.05655 23.056552,23.056549 0 0 1 23.05655,23.05655 z"
       id="path4485-3-70"
       inkscape:connector-curvature="0"
       transform="matrix(0.86998039,0,0,0.86998039,12.809367,25.560731)" />
    <path
       style="opacity:1;fill:#e0f4fa;fill-opacity:1;fill-rule:nonzero;stroke:none;stroke-width:0.86998039;stroke-linecap:round;stroke-linejoin:round;stroke-miterlimit:4;stroke-dasharray:none;stroke-dashoffset:0;stroke-opacity:1;paint-order:normal"
       d="m 169.33334,228.70114 a 24.662393,24.66239 0 0 1 -24.66238,24.66239 24.662393,24.66239 0 0 1 -24.6624,-24.66239 24.662393,24.66239 0 0 1 24.6624,-24.66239 24.662393,24.66239 0 0 1 24.66238,24.66239 z"
       id="path4485-3-6"
       inkscape:connector-curvature="0" />
    <path
       style="opacity:1;fill:#e0f4fa;fill-opacity:1;fill-rule:nonzero;stroke:none;stroke-width:0.86998034;stroke-linecap:round;stroke-linejoin:round;stroke-miterlimit:4;stroke-dasharray:none;stroke-dashoffset:0;stroke-opacity:1;paint-order:normal"
       d="M 81.86406,237.90843 A 29.26604,29.266037 0 0 1 52.598022,267.17446 29.26604,29.266037 0 0 1 23.331985,237.90843 29.26604,29.266037 0 0 1 52.598022,208.64239 29.26604,29.266037 0 0 1 81.86406,237.90843 Z"
       id="path4485-3-7"
       inkscape:connector-curvature="0" />
    <path
       style="opacity:0.98999999;fill:#e0f4fa;fill-opacity:1;fill-rule:nonzero;stroke:none;stroke-width:0.86998039;stroke-linecap:round;stroke-linejoin:round;stroke-miterlimit:4;stroke-dasharray:none;stroke-dashoffset:0;stroke-opacity:1;paint-order:normal"
       d="m 141.71146,150.43915 a 20.058748,20.058746 0 0 1 -20.05875,20.05875 20.058748,20.058746 0 0 1 -20.05875,-20.05875 20.058748,20.058746 0 0 1 20.05875,-20.05874 20.058748,20.058746 0 0 1 20.05875,20.05874 z"
       id="path4485-3"
       inkscape:connector-curvature="0" />
  </g>
  <g
     style="display:inline"
     inkscape:label="border"
     id="g872"
     inkscape:groupmode="layer"
     sodipodi:insensitive="true"
     transform="translate(4.5719987,4.5720002)">
    <path
       id="path870"
       d="M 19.999811,-1.9999999e-7 C 8.9198113,-1.9999999e-7 1.3e-6,8.9198098 1.3e-6,19.999813 V 170.50019 c 0,11.08 8.91981,19.99981 19.9998097,19.99981 H 170.50019 c 11.08,0 19.99981,-8.91981 19.99981,-19.99981 V 19.999813 C 190.5,8.9198098 181.58019,-1.9999999e-7 170.50019,-1.9999999e-7 Z M 32.541681,15.875 H 157.95832 c 9.23333,0 16.66668,7.43335 16.66668,16.666683 V 157.95832 c 0,9.23333 -7.43335,16.66668 -16.66668,16.66668 H 32.541681 c -9.23333,0 -16.66668,-7.43335 -16.66668,-16.66668 V 32.541683 c 0,-9.233333 7.43335,-16.666683 16.66668,-16.666683 z"
       style="display:inline;opacity:1;fill:#022a35;fill-opacity:1;fill-rule:nonzero;stroke:none;stroke-width:0.26458332;stroke-linecap:round;stroke-linejoin:round;stroke-miterlimit:4;stroke-dasharray:none;stroke-dashoffset:0;stroke-opacity:1;paint-order:normal;filter:url(#filter886)"
       inkscape:connector-curvature="0" />
    <path
       inkscape:connector-curvature="0"
       id="path868"
       d="M 19.999814,-9.9999994e-8 C 8.9198145,-9.9999994e-8 1.85e-6,8.9198125 1.85e-6,19.999813 V 170.50019 C 1.85e-6,181.58018 8.9198145,190.5 19.999814,190.5 H 170.50019 c 11.08,0 19.99981,-8.91982 19.99981,-19.99981 V 19.999813 C 190.5,8.9198125 181.58019,-9.9999994e-8 170.50019,-9.9999994e-8 Z M 32.541685,15.875 H 157.95832 c 9.23333,0 16.66668,7.43335 16.66668,16.666683 V 157.95831 c 0,9.23334 -7.43335,16.66669 -16.66668,16.66669 H 32.541685 c -9.233333,0 -16.666683,-7.43335 -16.666683,-16.66669 V 32.541683 c 0,-9.233333 7.43335,-16.666683 16.666683,-16.666683 z"
       style="opacity:1;fill:#e0f4fa;fill-opacity:1;fill-rule:nonzero;stroke:none;stroke-width:0.26458332;stroke-linecap:round;stroke-linejoin:round;stroke-miterlimit:4;stroke-dasharray:none;stroke-dashoffset:0;stroke-opacity:1;paint-order:normal" />
  </g>
</svg>
